# Blender 4.3.2
# www.blender.org
o CORNER_INVERTED
v -1.000000 0.999999 1.000001
v -1.000000 -1.000001 1.000000
v 1.000000 0.999999 1.000000
v 1.000000 -1.000001 0.999999
v -1.000000 1.000001 -0.999999
v -1.000000 -0.999999 -1.000000
v 1.000000 1.000001 -1.000000
v 1.000000 -0.999999 -1.000001
v -1.000000 0.065502 1.000001
v 1.000000 0.065502 1.000000
v 1.000000 0.065503 -1.000000
v -1.000000 0.065503 -0.999999
v -1.000000 -0.054670 1.000000
v 1.000000 -0.054670 1.000000
v 1.000000 -0.054668 -1.000000
v -1.000000 -0.054668 -1.000000
v -1.000000 -0.828185 1.000000
v 1.000000 -0.828185 0.999999
v 1.000000 -0.828185 -1.000001
v -1.000000 -0.828185 -1.000000
v 0.768326 -1.000001 0.999999
v 0.768326 1.000001 -1.000000
v 0.768326 0.065502 1.000000
v 0.768326 -0.054670 1.000000
v 0.768326 -0.828185 0.999999
v 0.768326 1.000000 1.000000
v 0.768326 -1.000000 -1.000001
v 0.768326 0.065503 -1.000000
v 0.768326 -0.054668 -1.000000
v 0.768326 -0.828185 -1.000001
v 0.063125 0.999999 1.000000
v 0.076126 -0.999999 -1.000001
v 0.063125 0.065503 -1.000000
v 0.063125 -0.054668 -1.000000
v 0.076126 -0.828185 -1.000001
v 0.076127 -1.000001 0.999999
v 0.063125 1.000001 -1.000000
v 0.063125 0.065502 1.000000
v 0.063125 -0.054670 1.000000
v 0.076127 -0.828185 0.999999
v -0.052665 0.999999 1.000000
v -0.021034 -0.999999 -1.000001
v -0.052666 0.065503 -1.000000
v -0.052666 -0.054668 -1.000000
v -0.021034 -0.828185 -1.000001
v -0.021033 -1.000001 0.999999
v -0.052666 1.000001 -1.000000
v -0.052665 0.065502 1.000000
v -0.052665 -0.054670 1.000000
v -0.021033 -0.828185 0.999999
v 1.000000 0.832527 1.000000
v 1.000000 0.832528 -1.000000
v -1.000000 0.832528 -0.999999
v -1.000000 0.832527 1.000001
v 0.768326 0.832528 -1.000000
v 0.768326 0.832527 1.000000
v 0.063125 0.832527 1.000000
v 0.063125 0.832528 -1.000000
v -0.052665 0.832527 1.000000
v -0.052666 0.832528 -1.000000
v -0.850166 0.999999 1.000001
v -0.845164 -0.999999 -1.000000
v -0.850167 0.065503 -1.000000
v -0.850167 -0.054668 -1.000000
v -0.845164 -0.828185 -1.000000
v -0.845163 -1.000001 1.000000
v -0.850167 1.000001 -0.999999
v -0.850166 0.065502 1.000000
v -0.850166 -0.054670 1.000000
v -0.845163 -0.828185 1.000000
v -0.850166 0.832527 1.000001
v -0.850167 0.832528 -0.999999
vn -0.0000 -0.0000 1.0000
vn 1.0000 -0.0000 -0.0000
vn -0.0000 -0.0000 -1.0000
vn -1.0000 -0.0000 -0.0000
vn -0.0000 1.0000 -0.0000
vn -0.0000 -1.0000 -0.0000
vt 0.836710 0.074934
vt 0.825202 0.080858
vt 0.825202 0.082289
vt 0.844417 0.082289
vt 0.844417 0.080858
vt 0.844417 0.080858
vt 0.844417 0.082289
vt 0.825202 0.080858
vt 0.714678 0.133142
vt 0.733893 0.133142
vt 0.850104 0.222795
vt 0.850104 0.217448
vt 0.830889 0.217448
vt 0.830889 0.222795
vt 0.850104 0.222795
vt 0.834757 0.070439
vt 0.834757 0.070439
vt 0.972775 0.423370
vt 0.972775 0.424524
vt 0.953560 0.424524
vt 0.953560 0.423370
vt 0.856471 0.085167
vt 0.856471 0.075052
vt 0.837256 0.075052
vt 0.837256 0.085167
vt 0.837256 0.085167
vt 0.856061 0.087647
vt 0.825202 0.082289
vt 0.825202 0.082289
vt 0.825202 0.080858
vt 0.825202 0.080858
vt 0.825202 0.082289
vt 0.942217 0.423876
vt 0.942218 0.429223
vt 0.942217 0.423876
vt 0.837256 0.085167
vt 0.856266 0.086407
vt 0.856471 0.075052
vt 0.856471 0.085167
vt 0.856061 0.087647
vt 0.844417 0.082289
vt 0.837256 0.075052
vt 0.830889 0.222795
vt 0.961432 0.423876
vt 0.961432 0.429223
vt 0.961432 0.423876
vt 0.942217 0.422709
vt 0.961432 0.422709
vt 0.961432 0.422709
vt 0.844561 0.228845
vt 0.844561 0.227678
vt 0.844561 0.227678
vt 0.844561 0.228845
vt 0.850104 0.223963
vt 0.850104 0.223963
vt 0.733893 0.131975
vt 0.714678 0.131975
vt 0.850104 0.222795
vt 0.714678 0.131975
vt 0.863776 0.228845
s 0
f 25/1/1 21/1/1 4/1/1 18/1/1
f 18/2/2 4/3/2 8/4/2 19/5/2
f 65/6/3 62/7/3 6/4/3 20/6/3
f 20/6/4 6/4/4 2/3/4 17/8/4
f 61/9/5 67/10/5 5/10/5 1/9/5
f 62/7/6 66/3/6 2/3/6 6/4/6
f 53/11/4 12/12/4 9/13/4 54/14/4
f 72/15/3 63/12/3 12/12/3 53/11/3
f 51/16/2 10/16/2 11/16/2 52/17/2
f 56/1/1 23/1/1 10/1/1 51/1/1
f 12/18/4 16/19/4 13/20/4 9/21/4
f 63/18/3 64/19/3 16/19/3 12/18/3
f 10/16/2 14/16/2 15/16/2 11/16/2
f 23/1/1 24/1/1 14/1/1 10/1/1
f 16/22/4 20/23/4 17/24/4 13/25/4
f 64/22/3 65/23/3 20/23/3 16/22/3
f 14/16/2 18/16/2 19/16/2 15/16/2
f 24/1/1 25/1/1 18/1/1 14/1/1
f 39/25/1 40/24/1 25/24/1 24/26/1
f 38/27/1 39/27/1 24/27/1 23/27/1
f 57/27/1 38/27/1 23/27/1 56/27/1
f 40/8/1 36/28/1 21/29/1 25/30/1
f 19/1/3 8/1/3 27/1/3 30/1/3
f 3/1/5 7/1/5 22/1/5 26/1/5
f 8/1/6 4/1/6 21/1/6 27/1/6
f 52/1/3 11/1/3 28/1/3 55/1/3
f 11/1/3 15/1/3 29/1/3 28/1/3
f 15/1/3 19/1/3 30/1/3 29/1/3
f 50/31/1 46/32/1 36/28/1 40/8/1
f 59/33/1 48/34/1 38/34/1 57/35/1
f 48/21/1 49/20/1 39/20/1 38/21/1
f 49/36/1 50/24/1 40/24/1 39/25/1
f 29/37/3 30/38/3 35/23/3 34/39/3
f 28/40/3 29/37/3 34/27/3 33/27/3
f 55/27/3 28/40/3 33/27/3 58/27/3
f 27/4/6 21/29/6 36/28/6 32/41/6
f 26/27/5 22/27/5 37/27/5 31/27/5
f 30/5/3 27/4/3 32/41/3 35/5/3
f 69/25/1 70/42/1 50/24/1 49/36/1
f 68/21/1 69/20/1 49/20/1 48/21/1
f 71/14/1 68/13/1 48/13/1 59/43/1
f 70/8/1 66/3/1 46/32/1 50/31/1
f 34/39/3 35/23/3 45/23/3 44/39/3
f 33/18/3 34/19/3 44/19/3 43/18/3
f 58/44/3 33/45/3 43/45/3 60/46/3
f 32/41/6 36/28/6 46/32/6 42/41/6
f 31/47/5 37/48/5 47/49/5 41/47/5
f 35/5/3 32/41/3 42/41/3 45/5/3
f 37/48/3 58/44/3 60/46/3 47/49/3
f 61/50/1 71/51/1 59/52/1 41/53/1
f 22/27/3 55/27/3 58/27/3 37/27/3
f 41/47/1 59/33/1 57/35/1 31/47/1
f 7/1/3 52/1/3 55/1/3 22/1/3
f 31/27/1 57/27/1 56/27/1 26/27/1
f 26/1/1 56/1/1 51/1/1 3/1/1
f 3/16/2 51/16/2 52/17/2 7/16/2
f 67/54/3 72/15/3 53/11/3 5/55/3
f 5/10/4 53/56/4 54/57/4 1/9/4
f 47/55/3 60/58/3 72/15/3 67/54/3
f 1/9/1 54/57/1 71/59/1 61/9/1
f 17/8/1 2/3/1 66/3/1 70/8/1
f 54/14/1 9/13/1 68/13/1 71/14/1
f 9/21/1 13/20/1 69/20/1 68/21/1
f 13/25/1 17/24/1 70/42/1 69/25/1
f 44/39/3 45/23/3 65/23/3 64/22/3
f 43/18/3 44/19/3 64/19/3 63/18/3
f 60/58/3 43/12/3 63/12/3 72/15/3
f 42/41/6 46/32/6 66/3/6 62/7/6
f 41/53/5 47/60/5 67/60/5 61/50/5
f 45/5/3 42/41/3 62/7/3 65/6/3
