# Blender 4.3.2
# www.blender.org
o SIDE
v -1.000000 1.000000 -1.000000
v 1.000000 1.000000 -1.000000
v -1.000000 -1.000000 -1.000000
v 1.000000 -1.000000 -1.000000
v -1.000000 1.000000 1.000000
v 1.000000 1.000000 1.000000
v -1.000000 -1.000000 1.000000
v 1.000000 -1.000000 1.000000
v -0.057826 1.000000 -1.000000
v -0.057826 -1.000000 -1.000000
v -0.057826 -1.000000 1.000000
v -0.057825 1.000000 1.000000
v 0.062346 1.000000 -1.000000
v 0.062345 -1.000000 -1.000000
v 0.062346 -1.000000 1.000000
v 0.062346 1.000000 1.000000
v 0.851069 1.000000 -1.000000
v 0.851069 -1.000000 -1.000000
v 0.851070 -1.000000 1.000000
v 0.851070 1.000000 1.000000
vn -0.0000 -0.0000 -1.0000
vn -0.0000 -1.0000 -0.0000
vn -0.0000 -0.0000 1.0000
vn -0.0000 1.0000 -0.0000
vn -1.0000 -0.0000 -0.0000
vn 1.0000 -0.0000 -0.0000
vt 0.708938 0.123489
vt 0.708938 0.124920
vt 0.708938 0.123489
vt 0.728152 0.124920
vt 0.728152 0.123489
vt 0.728152 0.123489
vt 0.830889 0.075052
vt 0.850104 0.075052
vt 0.850104 0.081567
vt 0.830889 0.081567
vt 0.670098 0.150223
vt 0.670098 0.151377
vt 0.650884 0.151377
vt 0.650884 0.150223
vt 0.856471 0.213848
vt 0.856471 0.223963
vt 0.837256 0.223963
vt 0.837256 0.213848
vt 0.856471 0.213848
vt 0.856471 0.223963
vt 0.837256 0.223963
s 0
f 17/1/1 2/2/1 4/2/1 18/3/1
f 18/3/2 4/2/2 8/4/2 19/5/2
f 19/5/3 8/4/3 6/4/3 20/6/3
f 20/6/4 6/4/4 2/2/4 17/1/4
f 3/7/5 7/8/5 5/8/5 1/7/5
f 8/4/6 4/2/6 2/2/6 6/4/6
f 5/8/4 12/9/4 9/10/4 1/7/4
f 7/8/3 11/9/3 12/9/3 5/8/3
f 3/7/2 10/10/2 11/9/2 7/8/2
f 1/7/1 9/10/1 10/10/1 3/7/1
f 12/11/4 16/12/4 13/13/4 9/14/4
f 11/11/3 15/12/3 16/12/3 12/11/3
f 10/14/2 14/13/2 15/12/2 11/11/2
f 9/14/1 13/13/1 14/13/1 10/14/1
f 16/15/4 20/16/4 17/17/4 13/18/4
f 15/19/3 19/20/3 20/16/3 16/15/3
f 14/18/2 18/21/2 19/20/2 15/19/2
f 13/18/1 17/17/1 18/21/1 14/18/1
