# Blender 4.3.2
# www.blender.org
o Outline
v 0.139861 0.959797 -0.032014
v 0.139861 -0.959797 -0.032014
v 0.032014 0.959797 0.139861
v 0.032014 -0.959797 0.139861
v -0.032014 0.959797 -0.139861
v -0.032014 -0.959797 -0.139861
v -0.032014 0.959797 0.139861
v -0.032014 -0.959797 0.139861
v 0.513305 0.000000 -0.394428
v -0.394428 0.000000 0.513305
v 0.394428 0.000000 0.513305
v -0.394428 0.000000 -0.513305
v -0.513305 0.000000 0.394428
v -0.139861 0.959797 0.032014
v 0.513305 0.000000 0.394428
v 0.139861 -0.959797 0.032014
v 0.139861 0.959797 0.032014
v -0.139861 -0.959797 0.032014
v 0.394428 0.000000 -0.513305
v 0.032014 -0.959797 -0.139861
v 0.500806 0.000000 0.500806
v 0.104890 -1.052789 0.104890
v 0.032014 0.959797 -0.139861
v 0.104890 1.052789 0.104890
v 0.104890 -1.052789 -0.104890
v -0.139861 -0.959797 -0.032014
v 0.500806 0.000000 -0.500806
v -0.513305 0.000000 -0.394428
v -0.139861 0.959797 -0.032014
v 0.104890 1.052789 -0.104890
v -0.104890 -1.052789 -0.104890
v -0.104890 -1.052789 0.104890
v -0.500806 0.000000 0.500806
v -0.104890 1.052789 0.104890
v -0.500806 0.000000 -0.500806
v -0.104890 1.052789 -0.104890
vn -0.0000 -1.0000 -0.0000
vn -0.0000 -0.3626 -0.9319
vn 0.9319 -0.3626 -0.0000
vn -0.0000 1.0000 -0.0000
vn -0.9319 -0.3626 -0.0000
vn -0.0000 -0.3626 0.9319
vn -0.0000 0.3626 0.9319
vn -0.9319 0.3626 -0.0000
vn 0.9319 0.3626 -0.0000
vn -0.0000 0.3626 -0.9319
vn 0.0515 -0.3735 -0.9262
vn -0.0515 0.3735 -0.9262
vn -0.0000 -0.3520 -0.9360
vn -0.0000 0.3520 -0.9360
vn 0.0515 0.3735 -0.9262
vn -0.0515 -0.3735 -0.9262
vn -0.9262 0.3735 0.0515
vn -0.9262 0.3735 -0.0515
vn -0.9360 -0.3520 -0.0000
vn -0.9360 0.3520 -0.0000
vn -0.9262 -0.3735 0.0515
vn -0.9262 -0.3735 -0.0515
vn -0.0000 0.3520 0.9360
vn -0.0515 0.3735 0.9262
vn 0.0515 0.3735 0.9262
vn -0.0000 -0.3520 0.9360
vn -0.0515 -0.3735 0.9262
vn 0.0515 -0.3735 0.9262
vn 0.9360 0.3520 -0.0000
vn 0.9262 -0.3735 -0.0515
vn 0.9262 0.3735 0.0515
vn 0.9360 -0.3520 -0.0000
vn 0.9262 0.3735 -0.0515
vn 0.9262 -0.3735 0.0515
vt 0.347144 0.212417
vt 0.339717 0.212417
vt 0.344113 0.011236
vt 0.339717 0.027987
vt 0.347144 0.027987
vt 0.329466 0.120202
vt 0.325699 0.120202
vt 0.342297 0.204272
vt 0.357395 0.120202
vt 0.361161 0.120202
vt 0.344564 0.036132
vt 0.344564 0.204272
vt 0.342297 0.036132
vt 0.361604 0.120202
vt 0.348382 0.036132
vt 0.348382 0.204272
vt 0.338478 0.036132
vt 0.338478 0.204272
vt 0.325257 0.120202
s 0
f 30/1/1 24/1/1 34/2/1 36/2/1
f 11/3/2 10/3/2 7/3/2 3/3/2
f 13/3/3 28/3/3 29/3/3 14/3/3
f 31/4/4 32/4/4 22/5/4 25/5/4
f 9/3/5 15/3/5 17/3/5 1/3/5
f 12/3/6 19/3/6 23/3/6 5/3/6
f 6/3/7 20/3/7 19/3/7 12/3/7
f 2/3/8 16/3/8 15/3/8 9/3/8
f 18/3/9 26/3/9 28/3/9 13/3/9
f 4/3/10 8/3/10 10/3/10 11/3/10
f 10/6/11 33/7/11 34/2/11 7/8/11
f 11/9/12 21/10/12 22/5/12 4/11/12
f 7/8/13 34/2/13 24/1/13 3/12/13
f 4/11/14 22/5/14 32/4/14 8/13/14
f 8/13/15 32/4/15 33/7/15 10/6/15
f 3/12/16 24/1/16 21/10/16 11/9/16
f 9/14/17 27/10/17 25/5/17 2/15/17
f 16/15/18 22/5/18 21/10/18 15/14/18
f 17/16/19 24/1/19 30/1/19 1/16/19
f 2/15/20 25/5/20 22/5/20 16/15/20
f 1/16/21 30/1/21 27/10/21 9/14/21
f 15/14/22 21/10/22 24/1/22 17/16/22
f 6/13/23 31/4/23 25/5/23 20/11/23
f 20/11/24 25/5/24 27/10/24 19/9/24
f 12/6/25 35/7/25 31/4/25 6/13/25
f 23/12/26 30/1/26 36/2/26 5/8/26
f 19/9/27 27/10/27 30/1/27 23/12/27
f 5/8/28 36/2/28 35/7/28 12/6/28
f 18/17/29 32/4/29 31/4/29 26/17/29
f 14/18/30 34/2/30 33/7/30 13/19/30
f 26/17/31 31/4/31 35/7/31 28/19/31
f 29/18/32 36/2/32 34/2/32 14/18/32
f 13/19/33 33/7/33 32/4/33 18/17/33
f 28/19/34 35/7/34 36/2/34 29/18/34
