# Blender 4.3.2
# www.blender.org
mtllib BLUE.mtl
o BLUE
v 3.393765 0.147099 0.373877
v 1.242578 -2.416117 0.373877
v 3.254038 0.264365 0.670986
v 1.102851 -2.298851 0.670987
v 3.171080 0.333988 0.187451
v 1.019893 -2.229228 0.187452
v 3.171080 0.333988 0.670986
v 1.019893 -2.229228 0.670987
v 2.802014 -1.540575 -0.252602
v 1.625937 -0.553549 1.316535
v 2.647995 -1.411314 1.316534
v 1.625937 -0.553549 -0.458097
v 1.471917 -0.424287 1.111040
v 3.031353 0.451255 0.484560
v 2.802015 -1.540576 1.111039
v 1.242578 -2.416117 0.484561
v 3.393765 0.147099 0.484560
v 0.880166 -2.111962 0.484561
v 2.647994 -1.411314 -0.458097
v 1.102851 -2.298851 0.187452
v 2.785820 -1.526984 1.294927
v 1.093059 -2.502263 0.610536
v 3.254038 0.264365 0.187451
v 3.452668 0.309295 0.610535
v 1.093059 -2.502263 0.247902
v 0.880166 -2.111962 0.373878
v 2.785820 -1.526984 -0.436490
v 1.471917 -0.424287 -0.252601
v 3.031353 0.451255 0.373877
v 3.452668 0.309295 0.247901
v 0.821263 -2.274158 0.247902
v 0.821263 -2.274158 0.610536
v 1.488111 -0.437878 1.294928
v 3.180872 0.537401 0.610535
v 1.488111 -0.437879 -0.436490
v 3.180872 0.537401 0.247902
vn 0.6429 0.7660 -0.0000
vn 0.2314 0.2757 0.9330
vn 0.2311 0.2754 0.9331
vn 0.2312 0.2754 0.9331
vn -0.4896 0.8720 -0.0000
vn -0.4899 0.8718 -0.0000
vn -0.4900 0.8717 -0.0000
vn -0.6429 -0.7660 -0.0000
vn 0.9437 -0.3309 -0.0000
vn 0.9435 -0.3313 -0.0000
vn 0.2314 0.2757 -0.9330
vn 0.2312 0.2754 -0.9331
vn -0.2312 -0.2754 -0.9331
vn -0.2314 -0.2757 -0.9330
vn 0.4900 -0.8717 -0.0000
vn 0.4896 -0.8720 -0.0000
vn 0.4899 -0.8718 -0.0000
vn -0.9435 0.3313 -0.0000
vn -0.9437 0.3309 -0.0000
vn -0.2312 -0.2754 0.9331
vn -0.2314 -0.2757 0.9330
vn 0.1980 0.3179 0.9272
vn -0.1980 -0.3179 0.9272
vn 0.2246 0.2676 0.9370
vn -0.2246 -0.2676 0.9370
vn -0.2787 -0.2501 0.9272
vn 0.2787 0.2501 0.9272
vn 0.4785 -0.8766 -0.0506
vn 0.4785 -0.8766 0.0506
vn 0.9399 -0.3413 -0.0000
vn 0.4992 -0.8665 -0.0000
vn 0.9463 -0.3192 -0.0506
vn 0.9463 -0.3192 0.0506
vn -0.2246 -0.2676 -0.9370
vn -0.1980 -0.3179 -0.9272
vn -0.2787 -0.2501 -0.9272
vn 0.2246 0.2676 -0.9370
vn 0.2787 0.2501 -0.9272
vn 0.1980 0.3179 -0.9272
vn -0.9399 0.3413 -0.0000
vn -0.4785 0.8766 0.0506
vn -0.9463 0.3192 -0.0506
vn -0.4992 0.8665 -0.0000
vn -0.9463 0.3192 0.0506
vn -0.4785 0.8766 -0.0506
vt 0.227779 0.719331
vt 0.220351 0.719331
vt 0.224748 0.518150
vt 0.220351 0.534901
vt 0.227779 0.534901
vt 0.210100 0.627116
vt 0.222932 0.711186
vt 0.206334 0.627116
vt 0.238030 0.627116
vt 0.225199 0.543046
vt 0.241796 0.627116
vt 0.225199 0.711186
vt 0.222932 0.543046
vt 0.242239 0.627116
vt 0.229017 0.543046
vt 0.229017 0.711186
vt 0.219113 0.543046
vt 0.219113 0.711186
vt 0.205892 0.627116
s 1
usemtl Material.001
f 30/1/1 36/2/1 34/2/1 24/1/1
f 11/3/2 3/3/3 7/3/4 10/3/2
f 13/3/5 14/3/6 29/3/7 28/3/5
f 31/4/8 25/5/8 22/5/8 32/4/8
f 9/3/9 1/3/10 17/3/10 15/3/9
f 12/3/11 5/3/12 23/3/12 19/3/11
f 6/3/13 12/3/14 19/3/14 20/3/13
f 2/3/15 9/3/16 15/3/16 16/3/17
f 18/3/18 13/3/19 28/3/19 26/3/18
f 4/3/20 11/3/21 10/3/21 8/3/20
f 10/6/22 7/7/22 34/2/22 33/8/22
f 11/9/23 4/10/23 22/5/23 21/11/23
f 7/7/4 3/12/3 24/1/24 34/2/24
f 4/10/20 8/13/20 32/4/25 22/5/25
f 8/13/26 10/6/26 33/8/26 32/4/26
f 3/12/27 11/9/27 21/11/27 24/1/27
f 9/14/28 2/15/28 25/5/28 27/11/28
f 16/15/29 15/14/29 21/11/29 22/5/29
f 17/16/10 1/16/10 30/1/30 24/1/30
f 2/15/15 16/15/17 22/5/31 25/5/31
f 1/16/32 9/14/32 27/11/32 30/1/32
f 15/14/33 17/16/33 24/1/33 21/11/33
f 6/13/13 20/10/13 25/5/34 31/4/34
f 20/10/35 19/9/35 27/11/35 25/5/35
f 12/6/36 6/13/36 31/4/36 35/8/36
f 23/12/12 5/7/12 36/2/37 30/1/37
f 19/9/38 23/12/38 30/1/38 27/11/38
f 5/7/39 12/6/39 35/8/39 36/2/39
f 18/17/18 26/17/18 31/4/40 32/4/40
f 14/18/41 13/19/41 33/8/41 34/2/41
f 26/17/42 28/19/42 35/8/42 31/4/42
f 29/18/7 14/18/6 34/2/43 36/2/43
f 13/19/44 18/17/44 32/4/44 33/8/44
f 28/19/45 29/18/45 36/2/45 35/8/45
