# Blender 4.3.2
# www.blender.org
o LEVER_ON
v 0.882772 -0.275715 -0.083946
v 1.077015 -0.420360 -0.057243
v 0.882772 -0.275715 0.083946
v 1.077015 -0.420360 0.057243
v -0.882772 -0.275715 -0.083946
v -1.077015 -0.420360 -0.083946
v -0.882772 -0.275715 0.083946
v -1.077015 -0.420360 0.057243
v 0.396074 -0.420360 -0.057243
v -0.396074 -0.420360 -0.057243
v 0.405596 0.076490 0.083946
v -0.405596 0.076490 0.083946
v -0.396074 -0.420360 0.057243
v 0.396074 -0.420360 0.057243
v -0.405596 0.076490 -0.083946
v 0.405596 0.076490 -0.083946
v -0.048580 0.022784 0.027637
v -0.048580 0.022784 -0.027637
v 0.010194 -0.052680 0.027637
v 0.010194 -0.052680 -0.027637
v 0.887877 0.751753 0.027637
v 0.887877 0.751753 -0.027638
v 0.946650 0.676289 -0.027638
v 0.946650 0.676289 0.027637
v 1.089841 1.065625 0.033526
v 1.089841 1.065624 -0.033526
v 1.300424 0.795240 0.033526
v 1.300424 0.795239 -0.033527
v 0.794913 0.871117 0.034850
v 0.794913 0.871117 -0.034850
v 1.039614 0.556924 -0.034850
v 1.039614 0.556924 0.034850
v -1.188222 -0.420360 -0.083946
v -1.188222 -0.420360 0.083946
v 1.000000 -0.145058 -0.057243
v 1.188222 -0.420360 -0.057243
v -1.000000 -0.145058 0.057243
v 1.000000 -0.145058 0.057243
v 1.188222 -0.420360 0.057243
v -1.000000 -0.145058 -0.057243
v -0.435954 0.187698 0.057243
v 0.435954 0.187698 -0.057243
v 0.435954 0.187698 0.057243
v -0.435954 0.187698 -0.057243
v -1.015018 -0.420360 -0.057243
v -1.015018 -0.420360 0.057243
v 0.924249 -0.229487 -0.083946
v 1.015018 -0.420360 -0.057243
v -0.924249 -0.229487 0.083946
v 0.924249 -0.229487 0.083946
v 1.015018 -0.420360 0.057243
v -0.924249 -0.229487 -0.083946
v -0.388973 0.015599 0.083946
v 0.388973 0.015599 -0.083946
v 0.388973 0.015599 0.083946
v -0.388973 0.015599 -0.083946
v -1.188222 -0.420360 0.109163
v -1.000000 -0.145058 0.109163
v 1.000000 -0.145058 0.109163
v 1.188222 -0.420360 0.109163
v -0.435954 0.187698 0.109163
v 0.396074 -0.420360 0.109163
v 1.015018 -0.420360 0.109163
v 0.435954 0.187698 0.109163
v -1.015018 -0.420360 0.109163
v -0.396074 -0.420360 0.109163
v 0.388973 0.015599 0.109163
v -0.388973 0.015599 0.109163
v -1.077015 -0.420360 0.109163
v -0.924249 -0.229487 0.109163
v 0.924249 -0.229487 0.109163
v 1.077015 -0.420360 0.109163
v -0.405596 0.076490 0.109163
v 0.405596 0.076490 0.109163
v -0.882772 -0.275715 0.109163
v 0.882772 -0.275715 0.109163
v -0.396074 -0.420360 -0.083946
v -1.015018 -0.420360 -0.083946
v 1.000000 -0.145058 -0.083946
v 1.188222 -0.420360 -0.083946
v -1.188222 -0.420360 0.057243
v -1.000000 -0.145058 0.083946
v 1.000000 -0.145058 0.083946
v 1.188222 -0.420360 0.083946
v -1.000000 -0.145058 -0.083946
v -1.188222 -0.420360 -0.057243
v -0.435954 0.187698 0.083946
v 0.396074 -0.420360 0.083946
v 1.015018 -0.420360 0.083946
v 0.435954 0.187698 -0.083946
v 1.015018 -0.420360 -0.083946
v 0.396074 -0.420360 -0.083946
v 0.435954 0.187698 0.083946
v -1.015018 -0.420360 0.083946
v -0.396074 -0.420360 0.083946
v -0.435954 0.187698 -0.083946
v -1.077015 -0.420360 -0.057243
v -1.077015 -0.420360 0.083946
v 1.077015 -0.420360 -0.083946
v 1.077015 -0.420360 0.083946
v -1.129772 -0.441274 -0.057243
v -1.129772 -0.441274 0.057243
v 0.954852 -0.193322 -0.057243
v 0.954852 -0.193322 0.057243
v -0.954852 -0.193322 0.057243
v -0.954852 -0.193322 -0.057243
v 1.129772 -0.441274 0.057243
v 1.129772 -0.441274 -0.057243
v -0.396074 -0.406028 -0.057243
v -0.396074 -0.406028 0.057243
v 0.396074 -0.406028 -0.057243
v 0.396074 -0.406028 0.057243
v 0.418550 0.123942 -0.057243
v 0.418550 0.123942 0.057243
v -0.418550 0.123942 -0.057243
v -0.418550 0.123942 0.057243
v -1.077015 -0.406028 -0.057243
v -1.077015 -0.406028 0.057243
v 1.077015 -0.406028 0.057243
v 1.077015 -0.406028 -0.057243
v -1.015018 -0.406028 -0.057243
v -1.015018 -0.406028 0.057243
v 1.015018 -0.406028 0.057243
v 1.015018 -0.406028 -0.057243
v 0.867805 0.953690 0.039775
v 0.981446 1.028637 0.039265
v 0.981446 1.028637 -0.039265
v 0.867805 0.953690 -0.039775
v 1.238018 0.699203 -0.039265
v 1.137523 0.607375 -0.039775
v 1.238018 0.699203 0.039265
v 1.137523 0.607376 0.039775
v -0.009397 -0.027525 -0.027637
v -0.028989 -0.002371 -0.027637
v -0.028989 -0.002371 0.027637
v -0.009397 -0.027525 0.027637
v 0.927059 0.701443 0.027637
v 0.907468 0.726598 0.027637
v 0.907468 0.726598 -0.027638
v 0.927059 0.701443 -0.027638
v 1.200242 1.011117 -0.033526
v 1.270437 0.920989 -0.033527
v 1.270437 0.920989 0.033526
v 1.200242 1.011118 0.033526
v 0.958047 0.661655 0.034850
v 0.876480 0.766386 0.034850
v 0.876480 0.766386 -0.034850
v 0.958047 0.661655 -0.034850
v 1.047617 0.722814 0.039775
v 0.957711 0.838252 0.039775
v 1.152494 0.809014 0.039265
v 1.066970 0.918826 0.039265
v 0.957711 0.838252 -0.039775
v 1.047617 0.722813 -0.039775
v 1.066970 0.918826 -0.039265
v 1.152494 0.809014 -0.039265
vn -0.0000 -0.0000 1.0000
vn -0.0000 1.0000 -0.0000
vn -0.0000 -0.0000 -1.0000
vn -0.0000 -1.0000 -0.0000
vn -0.6552 -0.7555 -0.0000
vn -0.7807 -0.6249 -0.0000
vn -0.7890 -0.6145 -0.0000
vn 0.6143 -0.7891 -0.0000
vn -0.6143 0.7891 -0.0000
vn -0.4654 0.8851 -0.0000
vn -0.3229 0.9464 -0.0000
vn 0.0179 0.0111 -0.9998
vn 0.0328 0.0211 -0.9992
vn 0.0406 0.0199 -0.9990
vn 0.0183 0.0095 -0.9998
vn 0.7442 -0.6680 -0.0000
vn 0.8385 -0.5449 -0.0000
vn 0.0151 0.0146 0.9998
vn 0.0284 0.0268 0.9992
vn 0.0290 0.0345 0.9990
vn 0.0136 0.0155 0.9998
vn 0.6318 0.7751 -0.0000
vn 0.4427 0.8967 -0.0000
vn 0.6831 0.7303 -0.0000
vn 0.5081 0.8613 -0.0000
vn 0.6300 0.7766 -0.0000
vn 0.7807 -0.6249 -0.0000
vn 0.6552 -0.7555 -0.0000
vn -0.5081 0.8613 -0.0000
vn -0.6831 0.7303 -0.0000
vn -0.6300 0.7766 -0.0000
vn -0.7380 0.6748 -0.0000
vn 0.7380 0.6748 -0.0000
vn 0.5081 -0.8613 -0.0000
vn -0.8255 0.5644 -0.0000
vn 0.8255 0.5644 -0.0000
vn -0.5081 -0.8613 -0.0000
vn -0.5092 0.8607 -0.0000
vn -0.6782 0.7349 -0.0000
vn -0.8171 0.5765 -0.0000
vn 0.8171 0.5765 -0.0000
vn 0.6782 0.7349 -0.0000
vn 0.5092 0.8607 -0.0000
vn 0.5555 -0.8315 -0.0000
vn -0.5555 -0.8315 -0.0000
vn -0.0359 -0.0279 0.9990
vn 0.0030 0.0023 1.0000
vn 0.4581 -0.8889 -0.0000
vn 0.5898 -0.8076 -0.0000
vn -0.0359 -0.0279 -0.9990
vn 0.0030 0.0023 -1.0000
vn -0.7497 0.6618 -0.0000
vn -0.6385 0.7696 -0.0000
vn 0.0136 0.0155 -0.9998
vn 0.0151 0.0146 -0.9998
vn 0.0183 0.0095 0.9998
vn 0.0179 0.0111 0.9998
vn 0.9727 0.2320 -0.0000
vn 0.9014 0.4331 -0.0000
vn 0.0406 0.0199 0.9990
vn 0.0328 0.0211 0.9992
vn 0.0290 0.0345 -0.9990
vn 0.0284 0.0268 -0.9992
vt 0.641959 0.381101
vt 0.591887 0.023566
vt 0.591887 0.023566
vt 0.591887 0.023566
vt 0.591887 0.023566
vt 0.641959 0.381101
vt 0.641959 0.381101
vt 0.641959 0.381101
vt 0.641959 0.381101
vt 0.641959 0.381101
vt 0.591887 0.023566
s 1
f 97/1/1 45/1/1 121/1/1 117/1/1
f 55/1/2 53/1/2 68/1/2 67/1/2
f 37/2/3 41/2/3 116/2/3 105/2/3
f 13/2/3 46/2/3 122/2/3 110/2/3
f 39/2/1 4/2/1 119/2/1 107/2/1
f 92/2/3 54/2/3 1/2/3 91/2/3
f 78/2/3 5/2/3 56/2/3 77/2/3
f 77/2/3 56/2/3 54/2/3 92/2/3
f 40/2/1 86/2/1 101/2/1 106/2/1
f 41/2/3 43/2/3 114/2/3 116/2/3
f 100/2/4 84/2/4 60/2/4 72/2/4
f 50/1/5 100/1/6 72/1/6 71/1/5
f 2/2/3 36/2/3 108/2/3 120/2/3
f 38/2/3 39/2/3 107/2/3 104/2/3
f 137/3/7 24/2/7 32/2/7 145/3/7
f 139/3/7 22/2/7 30/2/7 147/3/7
f 24/2/7 23/2/7 31/2/7 32/2/7
f 133/4/7 20/2/7 19/2/7 136/3/7
f 22/2/7 21/2/7 29/2/7 30/2/7
f 135/4/1 138/3/1 21/2/1 17/2/1
f 20/2/8 23/2/8 24/2/8 19/2/8
f 133/4/3 140/5/3 23/2/3 20/2/3
f 17/2/9 21/2/9 22/2/9 18/2/9
f 126/6/10 25/1/11 26/1/11 127/7/10
f 156/8/12 142/9/13 28/1/14 129/6/15
f 129/6/16 28/1/17 27/1/17 131/7/16
f 152/10/18 144/6/19 25/1/20 126/6/21
f 141/6/22 26/1/23 25/1/23 144/6/22
f 43/2/3 38/2/3 104/2/3 114/2/3
f 99/2/3 47/2/3 79/2/3 80/2/3
f 83/2/24 93/2/25 64/2/25 59/2/24
f 3/1/26 55/1/25 67/1/25 76/1/26
f 52/2/3 6/2/3 33/2/3 85/2/3
f 98/1/27 49/1/28 70/1/28 69/1/27
f 47/2/3 16/2/3 90/2/3 79/2/3
f 8/2/1 81/2/1 102/2/1 118/2/1
f 87/2/29 82/2/30 58/2/30 61/2/29
f 12/1/4 11/1/4 74/1/4 73/1/4
f 15/2/3 52/2/3 85/2/3 96/2/3
f 16/2/3 15/2/3 96/2/3 90/2/3
f 81/2/3 37/2/3 105/2/3 102/2/3
f 91/1/3 1/1/3 47/1/3 99/1/3
f 94/1/1 7/1/1 49/1/1 98/1/1
f 3/1/1 89/1/1 100/1/1 50/1/1
f 5/1/3 78/1/3 6/1/3 52/1/3
f 7/1/1 53/1/1 12/1/1 49/1/1
f 1/1/3 54/1/3 16/1/3 47/1/3
f 10/2/1 9/2/1 111/2/1 109/2/1
f 55/1/1 3/1/1 50/1/1 11/1/1
f 53/1/1 55/1/1 11/1/1 12/1/1
f 56/1/3 5/1/3 52/1/3 15/1/3
f 54/1/3 56/1/3 15/1/3 16/1/3
f 66/2/1 68/2/1 75/2/1 65/2/1
f 63/2/1 76/2/1 67/2/1 62/2/1
f 62/2/1 67/2/1 68/2/1 66/2/1
f 69/2/1 70/2/1 58/2/1 57/2/1
f 71/2/1 72/2/1 60/2/1 59/2/1
f 70/2/1 73/2/1 61/2/1 58/2/1
f 74/2/1 71/2/1 59/2/1 64/2/1
f 73/2/1 74/2/1 64/2/1 61/2/1
f 93/2/2 87/2/2 61/2/2 64/2/2
f 7/1/31 94/1/32 65/1/32 75/1/31
f 88/2/4 89/2/4 63/2/4 62/2/4
f 94/2/4 95/2/4 66/2/4 65/2/4
f 89/1/33 3/1/26 76/1/26 63/1/33
f 49/1/28 12/1/34 73/1/34 70/1/28
f 95/2/4 88/2/4 62/2/4 66/2/4
f 34/2/4 98/2/4 69/2/4 57/2/4
f 82/2/30 34/2/35 57/2/35 58/2/30
f 53/1/29 7/1/31 75/1/31 68/1/29
f 84/2/36 83/2/24 59/2/24 60/2/36
f 11/1/37 50/1/5 71/1/5 74/1/37
f 10/2/4 45/2/4 78/2/4 77/2/4
f 35/2/24 36/2/36 80/2/36 79/2/24
f 37/2/30 81/2/35 34/2/35 82/2/30
f 39/2/36 38/2/24 83/2/24 84/2/36
f 86/2/35 40/2/30 85/2/30 33/2/35
f 41/2/29 37/2/30 82/2/30 87/2/29
f 14/2/4 51/2/4 89/2/4 88/2/4
f 42/2/25 35/2/24 79/2/24 90/2/25
f 48/2/4 9/2/4 92/2/4 91/2/4
f 9/2/4 10/2/4 77/2/4 92/2/4
f 38/2/24 43/2/25 93/2/25 83/2/24
f 43/2/2 41/2/2 87/2/2 93/2/2
f 46/2/4 13/2/4 95/2/4 94/2/4
f 13/2/4 14/2/4 88/2/4 95/2/4
f 40/2/30 44/2/29 96/2/29 85/2/30
f 44/2/2 42/2/2 90/2/2 96/2/2
f 97/2/4 86/2/4 33/2/4 6/2/4
f 81/2/4 8/2/4 98/2/4 34/2/4
f 36/2/4 2/2/4 99/2/4 80/2/4
f 4/2/4 39/2/4 84/2/4 100/2/4
f 45/1/4 97/1/4 6/1/4 78/1/4
f 8/1/4 46/1/4 94/1/4 98/1/4
f 2/1/4 48/1/4 91/1/4 99/1/4
f 51/1/4 4/1/4 100/1/4 89/1/4
f 115/2/38 106/2/39 105/2/39 116/2/38
f 102/2/40 105/2/39 106/2/39 101/2/40
f 111/2/4 124/2/4 123/2/4 112/2/4
f 108/2/41 103/2/42 104/2/42 107/2/41
f 121/2/4 109/2/4 110/2/4 122/2/4
f 109/2/4 111/2/4 112/2/4 110/2/4
f 103/2/42 113/2/43 114/2/43 104/2/42
f 113/2/2 115/2/2 116/2/2 114/2/2
f 117/2/44 118/2/44 102/2/44 101/2/44
f 119/2/45 120/2/45 108/2/45 107/2/45
f 121/1/4 122/1/4 118/1/4 117/1/4
f 123/1/4 124/1/4 120/1/4 119/1/4
f 14/2/3 13/2/3 110/2/3 112/2/3
f 51/2/3 14/2/3 112/2/3 123/2/3
f 46/1/3 8/1/3 118/1/3 122/1/3
f 44/2/1 40/2/1 106/2/1 115/2/1
f 35/2/1 42/2/1 113/2/1 103/2/1
f 48/1/1 2/1/1 120/1/1 124/1/1
f 45/2/1 10/2/1 109/2/1 121/2/1
f 42/2/1 44/2/1 115/2/1 113/2/1
f 9/2/1 48/2/1 124/2/1 111/2/1
f 4/1/3 51/1/3 123/1/3 119/1/3
f 36/2/1 35/2/1 103/2/1 108/2/1
f 86/2/3 97/2/3 117/2/3 101/2/3
f 146/6/46 150/6/46 125/1/46 29/1/46
f 150/6/47 152/10/18 126/6/21 125/1/47
f 31/1/48 130/1/49 132/6/49 32/1/48
f 130/1/49 129/6/16 131/7/16 132/6/49
f 148/6/50 154/1/50 130/1/50 31/1/50
f 154/1/51 156/8/12 129/6/15 130/1/51
f 29/1/52 125/1/53 128/1/53 30/1/52
f 125/1/53 126/6/10 127/7/10 128/1/53
f 128/1/51 127/7/54 155/7/55 153/6/51
f 153/6/51 155/7/55 156/8/12 154/1/51
f 30/1/50 128/1/50 153/6/50 147/6/50
f 147/6/50 153/6/50 154/1/50 148/6/50
f 132/6/47 131/7/56 151/7/57 149/1/47
f 149/1/47 151/7/57 152/10/18 150/6/47
f 32/1/46 132/6/46 149/1/46 145/6/46
f 145/6/46 149/1/46 150/6/46 146/6/46
f 28/1/58 142/9/59 143/6/59 27/1/58
f 142/9/59 141/6/22 144/6/22 143/6/59
f 131/7/56 27/1/60 143/6/61 151/7/57
f 151/7/57 143/6/61 144/6/19 152/10/18
f 127/7/54 26/1/62 141/6/63 155/7/55
f 155/7/55 141/6/63 142/9/13 156/8/12
f 18/2/3 22/2/3 139/3/3 134/3/3
f 134/3/3 139/3/3 140/5/3 133/4/3
f 19/2/1 24/2/1 137/3/1 136/3/1
f 136/3/1 137/3/1 138/3/1 135/4/1
f 18/2/7 134/3/7 135/4/7 17/2/7
f 134/3/7 133/4/7 136/3/7 135/4/7
f 23/2/7 140/5/7 148/3/7 31/2/7
f 140/5/7 139/3/7 147/3/7 148/3/7
f 21/2/7 138/3/7 146/11/7 29/2/7
f 138/3/7 137/3/7 145/3/7 146/11/7
