# Blender 4.3.2
# www.blender.org
o Spike
v 1.000000 0.542811 -1.000000
v -1.000000 0.542811 -1.000000
v -1.000000 0.542811 1.000000
v 1.000000 0.542811 1.000000
v 1.000000 0.542811 -0.500000
v 1.000000 0.542811 0.000000
v 1.000000 0.542811 0.500000
v -1.000000 0.542811 0.500000
v -1.000000 0.542811 0.000000
v -1.000000 0.542811 -0.500000
v 0.500000 0.542811 1.000000
v 0.000000 0.542811 1.000000
v -0.500000 0.542811 1.000000
v -0.500000 0.542811 -1.000000
v 0.000000 0.542811 -1.000000
v 0.500000 0.542811 -1.000000
v -0.500000 0.542811 -0.500000
v 0.000000 0.542811 -0.500000
v 0.500000 0.542811 -0.500000
v -0.500000 0.542811 0.000000
v 0.000000 0.542811 0.000000
v 0.500000 0.542811 0.000000
v -0.500000 0.542811 0.500000
v 0.000000 0.542811 0.500000
v 0.500000 0.542811 0.500000
v -0.586855 0.576243 0.586855
v -0.913145 0.576243 0.586855
v -0.913145 0.576243 0.913145
v -0.586855 0.576243 0.913145
v -0.586855 0.576243 -0.913145
v -0.913145 0.576243 -0.913145
v -0.913145 0.576243 -0.586855
v -0.586855 0.576243 -0.586855
v -0.586855 0.576243 -0.413145
v -0.913145 0.576243 -0.413145
v -0.913145 0.576243 -0.086855
v -0.586855 0.576243 -0.086855
v -0.586855 0.576243 0.086855
v -0.913145 0.576243 0.086855
v -0.913145 0.576243 0.413145
v -0.586855 0.576243 0.413145
v 0.913145 0.576243 0.086855
v 0.586855 0.576243 0.086855
v 0.586855 0.576243 0.413145
v 0.913145 0.576243 0.413145
v 0.413145 0.576243 0.086855
v 0.086855 0.576243 0.086855
v 0.086855 0.576243 0.413145
v 0.413145 0.576243 0.413145
v -0.086855 0.576243 0.086855
v -0.413145 0.576243 0.086855
v -0.413145 0.576243 0.413145
v -0.086855 0.576243 0.413145
v 0.913145 0.576243 -0.413145
v 0.586855 0.576243 -0.413145
v 0.586855 0.576243 -0.086855
v 0.913145 0.576243 -0.086855
v 0.413145 0.576243 -0.413145
v 0.086855 0.576243 -0.413145
v 0.086855 0.576243 -0.086855
v 0.413145 0.576243 -0.086855
v -0.086855 0.576243 -0.413145
v -0.413145 0.576243 -0.413145
v -0.413145 0.576243 -0.086855
v -0.086855 0.576243 -0.086855
v 0.913145 0.576243 -0.913145
v 0.586855 0.576243 -0.913145
v 0.586855 0.576243 -0.586855
v 0.913145 0.576243 -0.586855
v 0.413145 0.576243 -0.913145
v 0.086855 0.576243 -0.913145
v 0.086855 0.576243 -0.586855
v 0.413145 0.576243 -0.586855
v -0.086855 0.576243 -0.913145
v -0.413145 0.576243 -0.913145
v -0.413145 0.576243 -0.586855
v -0.086855 0.576243 -0.586855
v 0.913145 0.576243 0.586855
v 0.586855 0.576243 0.586855
v 0.586855 0.576243 0.913145
v 0.913145 0.576243 0.913145
v 0.413145 0.576243 0.586855
v 0.086855 0.576243 0.586855
v 0.086855 0.576243 0.913145
v 0.413145 0.576243 0.913145
v -0.086855 0.576243 0.586855
v -0.413145 0.576243 0.586855
v -0.413145 0.576243 0.913145
v -0.086855 0.576243 0.913145
v -0.725243 1.004170 0.725243
v -0.774757 1.004170 0.725243
v -0.774757 1.004170 0.774757
v -0.725243 1.004170 0.774757
v -0.725243 1.004170 -0.774757
v -0.774757 1.004170 -0.774757
v -0.774757 1.004170 -0.725243
v -0.725243 1.004170 -0.725243
v -0.725243 1.004170 -0.274757
v -0.774757 1.004170 -0.274757
v -0.774757 1.004170 -0.225243
v -0.725243 1.004170 -0.225243
v -0.725243 1.004170 0.225243
v -0.774757 1.004170 0.225243
v -0.774757 1.004170 0.274757
v -0.725243 1.004170 0.274757
v 0.774757 1.004170 0.225243
v 0.725243 1.004170 0.225243
v 0.725243 1.004170 0.274757
v 0.774757 1.004170 0.274757
v 0.274757 1.004170 0.225243
v 0.225243 1.004170 0.225243
v 0.225243 1.004170 0.274757
v 0.274757 1.004170 0.274757
v -0.225243 1.004170 0.225243
v -0.274757 1.004170 0.225243
v -0.274757 1.004170 0.274757
v -0.225243 1.004170 0.274757
v 0.774757 1.004170 -0.274757
v 0.725243 1.004170 -0.274757
v 0.725243 1.004170 -0.225243
v 0.774757 1.004170 -0.225243
v 0.274757 1.004170 -0.274757
v 0.225243 1.004170 -0.274757
v 0.225243 1.004170 -0.225243
v 0.274757 1.004170 -0.225243
v -0.225243 1.004170 -0.274757
v -0.274757 1.004170 -0.274757
v -0.274757 1.004170 -0.225243
v -0.225243 1.004170 -0.225243
v 0.774757 1.004170 -0.774757
v 0.725243 1.004170 -0.774757
v 0.725243 1.004170 -0.725243
v 0.774757 1.004170 -0.725243
v 0.274757 1.004170 -0.774757
v 0.225243 1.004170 -0.774757
v 0.225243 1.004170 -0.725243
v 0.274757 1.004170 -0.725243
v -0.225243 1.004170 -0.774757
v -0.274757 1.004170 -0.774757
v -0.274757 1.004170 -0.725243
v -0.225243 1.004170 -0.725243
v 0.774757 1.004170 0.725243
v 0.725243 1.004170 0.725243
v 0.725243 1.004170 0.774757
v 0.774757 1.004170 0.774757
v 0.274757 1.004170 0.725243
v 0.225243 1.004170 0.725243
v 0.225243 1.004170 0.774757
v 0.274757 1.004170 0.774757
v -0.225243 1.004170 0.725243
v -0.274757 1.004170 0.725243
v -0.274757 1.004170 0.774757
v -0.225243 1.004170 0.774757
vn 0.9515 0.3077 -0.0000
vn -0.9515 0.3077 -0.0000
vn -0.0000 0.3077 0.9515
vn -0.0000 0.3077 -0.9515
vn -0.0000 0.9333 -0.3592
vn -0.3592 0.9333 -0.0000
vn -0.0000 0.9333 0.3592
vn 0.3592 0.9333 -0.0000
vn -0.0000 1.0000 -0.0000
vt 0.027344 0.962891
vt 0.027344 0.962891
vt 0.027344 0.962891
vt 0.027344 0.962891
s 0
f 73/1/1 70/1/1 134/1/1 137/1/1
f 83/1/2 84/2/2 148/2/2 147/1/2
f 32/1/3 33/1/3 97/1/3 96/1/3
f 85/1/1 82/1/1 146/1/1 149/1/1
f 33/1/1 30/1/1 94/1/1 97/1/1
f 44/1/3 45/1/3 109/1/3 108/1/3
f 82/1/4 83/1/4 147/1/4 146/1/4
f 43/3/2 44/1/2 108/1/2 107/3/2
f 42/3/4 43/3/4 107/3/4 106/3/4
f 56/4/3 57/1/3 121/1/3 120/4/3
f 55/1/2 56/4/2 120/4/2 119/1/2
f 70/1/4 71/1/4 135/1/4 134/1/4
f 54/1/4 55/1/4 119/1/4 118/1/4
f 74/1/4 75/1/4 139/1/4 138/1/4
f 68/1/3 69/1/3 133/1/3 132/1/3
f 30/1/4 31/1/4 95/1/4 94/1/4
f 23/2/5 8/2/5 27/1/5 26/1/5
f 8/2/6 3/2/6 28/1/6 27/1/6
f 3/2/7 13/2/7 29/1/7 28/1/7
f 13/2/8 23/2/8 26/1/8 29/1/8
f 14/2/5 2/2/5 31/1/5 30/1/5
f 2/2/6 10/2/6 32/1/6 31/1/6
f 10/2/7 17/2/7 33/1/7 32/1/7
f 17/2/8 14/2/8 30/1/8 33/1/8
f 17/2/5 10/2/5 35/1/5 34/1/5
f 10/2/6 9/2/6 36/4/6 35/1/6
f 9/2/7 20/2/7 37/1/7 36/4/7
f 20/2/8 17/2/8 34/1/8 37/1/8
f 20/2/5 9/2/5 39/3/5 38/3/5
f 9/2/6 8/2/6 40/1/6 39/3/6
f 8/2/7 23/2/7 41/1/7 40/1/7
f 23/2/8 20/2/8 38/3/8 41/1/8
f 6/2/5 22/2/5 43/3/5 42/3/5
f 22/2/6 25/2/6 44/1/6 43/3/6
f 25/2/7 7/2/7 45/1/7 44/1/7
f 7/2/8 6/2/8 42/3/8 45/1/8
f 22/2/5 21/2/5 47/1/5 46/3/5
f 21/2/6 24/2/6 48/2/6 47/1/6
f 24/2/7 25/2/7 49/1/7 48/2/7
f 25/2/8 22/2/8 46/3/8 49/1/8
f 21/2/5 20/2/5 51/3/5 50/1/5
f 20/2/6 23/2/6 52/1/6 51/3/6
f 23/2/7 24/2/7 53/1/7 52/1/7
f 24/2/8 21/2/8 50/1/8 53/1/8
f 5/2/5 19/2/5 55/1/5 54/1/5
f 19/2/6 22/2/6 56/4/6 55/1/6
f 22/2/7 6/2/7 57/1/7 56/4/7
f 6/2/8 5/2/8 54/1/8 57/1/8
f 19/2/5 18/2/5 59/1/5 58/1/5
f 18/2/6 21/2/6 60/4/6 59/1/6
f 21/2/7 22/2/7 61/1/7 60/4/7
f 22/2/8 19/2/8 58/1/8 61/1/8
f 18/2/5 17/2/5 63/1/5 62/1/5
f 17/2/6 20/2/6 64/4/6 63/1/6
f 20/2/7 21/2/7 65/1/7 64/4/7
f 21/2/8 18/2/8 62/1/8 65/1/8
f 1/2/5 16/2/5 67/1/5 66/1/5
f 16/2/6 19/2/6 68/1/6 67/1/6
f 19/2/7 5/2/7 69/1/7 68/1/7
f 5/2/8 1/2/8 66/1/8 69/1/8
f 16/2/5 15/2/5 71/1/5 70/1/5
f 15/2/6 18/2/6 72/2/6 71/1/6
f 18/2/7 19/2/7 73/1/7 72/2/7
f 19/2/8 16/2/8 70/1/8 73/1/8
f 15/2/5 14/2/5 75/1/5 74/1/5
f 14/2/6 17/2/6 76/1/6 75/1/6
f 17/2/7 18/2/7 77/1/7 76/1/7
f 18/2/8 15/2/8 74/1/8 77/1/8
f 7/2/5 25/2/5 79/1/5 78/1/5
f 25/2/6 11/2/6 80/1/6 79/1/6
f 11/2/7 4/2/7 81/1/7 80/1/7
f 4/2/8 7/2/8 78/1/8 81/1/8
f 25/2/5 24/2/5 83/1/5 82/1/5
f 24/2/6 12/2/6 84/2/6 83/1/6
f 12/2/7 11/2/7 85/1/7 84/2/7
f 11/2/8 25/2/8 82/1/8 85/1/8
f 24/2/5 23/2/5 87/1/5 86/1/5
f 23/2/6 13/2/6 88/1/6 87/1/6
f 13/2/7 12/2/7 89/1/7 88/1/7
f 12/2/8 24/2/8 86/1/8 89/1/8
f 90/1/9 91/1/9 92/1/9 93/1/9
f 94/1/9 95/1/9 96/1/9 97/1/9
f 98/1/9 99/1/9 100/4/9 101/1/9
f 102/3/9 103/3/9 104/1/9 105/1/9
f 106/3/9 107/3/9 108/1/9 109/1/9
f 110/3/9 111/1/9 112/2/9 113/1/9
f 114/1/9 115/3/9 116/1/9 117/1/9
f 118/1/9 119/1/9 120/4/9 121/1/9
f 122/1/9 123/1/9 124/4/9 125/1/9
f 126/1/9 127/1/9 128/4/9 129/1/9
f 130/1/9 131/1/9 132/1/9 133/1/9
f 134/1/9 135/1/9 136/2/9 137/1/9
f 138/1/9 139/1/9 140/1/9 141/1/9
f 142/1/9 143/1/9 144/1/9 145/1/9
f 146/1/9 147/1/9 148/2/9 149/1/9
f 150/1/9 151/1/9 152/1/9 153/1/9
f 71/1/2 72/2/2 136/2/2 135/1/2
f 72/2/3 73/1/3 137/1/3 136/2/3
f 58/1/4 59/1/4 123/1/4 122/1/4
f 28/1/3 29/1/3 93/1/3 92/1/3
f 61/1/1 58/1/1 122/1/1 125/1/1
f 81/1/1 78/1/1 142/1/1 145/1/1
f 59/1/2 60/4/2 124/4/2 123/1/2
f 46/3/4 47/1/4 111/1/4 110/3/4
f 31/1/2 32/1/2 96/1/2 95/1/2
f 60/4/3 61/1/3 125/1/3 124/4/3
f 49/1/1 46/3/1 110/3/1 113/1/1
f 86/1/4 87/1/4 151/1/4 150/1/4
f 66/1/4 67/1/4 131/1/4 130/1/4
f 47/1/2 48/2/2 112/2/2 111/1/2
f 34/1/4 35/1/4 99/1/4 98/1/4
f 89/1/1 86/1/1 150/1/1 153/1/1
f 69/1/1 66/1/1 130/1/1 133/1/1
f 48/2/3 49/1/3 113/1/3 112/2/3
f 37/1/1 34/1/1 98/1/1 101/1/1
f 87/1/2 88/1/2 152/1/2 151/1/2
f 77/1/1 74/1/1 138/1/1 141/1/1
f 57/1/1 54/1/1 118/1/1 121/1/1
f 36/4/3 37/1/3 101/1/3 100/4/3
f 75/1/2 76/1/2 140/1/2 139/1/2
f 45/1/1 42/3/1 106/3/1 109/1/1
f 76/1/3 77/1/3 141/1/3 140/1/3
f 27/1/2 28/1/2 92/1/2 91/1/2
f 62/1/4 63/1/4 127/1/4 126/1/4
f 39/3/2 40/1/2 104/1/2 103/3/2
f 65/1/1 62/1/1 126/1/1 129/1/1
f 35/1/2 36/4/2 100/4/2 99/1/2
f 63/1/2 64/4/2 128/4/2 127/1/2
f 50/1/4 51/3/4 115/3/4 114/1/4
f 64/4/3 65/1/3 129/1/3 128/4/3
f 53/1/1 50/1/1 114/1/1 117/1/1
f 51/3/2 52/1/2 116/1/2 115/3/2
f 38/3/4 39/3/4 103/3/4 102/3/4
f 52/1/3 53/1/3 117/1/3 116/1/3
f 41/1/1 38/3/1 102/3/1 105/1/1
f 78/1/4 79/1/4 143/1/4 142/1/4
f 80/1/3 81/1/3 145/1/3 144/1/3
f 40/1/3 41/1/3 105/1/3 104/1/3
f 26/1/4 27/1/4 91/1/4 90/1/4
f 79/1/2 80/1/2 144/1/2 143/1/2
f 84/2/3 85/1/3 149/1/3 148/2/3
f 29/1/1 26/1/1 90/1/1 93/1/1
f 88/1/3 89/1/3 153/1/3 152/1/3
f 67/1/2 68/1/2 132/1/2 131/1/2
