# Blender 4.3.2
# www.blender.org
mtllib WHITE.mtl
o WHITE
v 0.053852 3.132110 0.670988
v -0.054416 3.129411 0.187452
v 0.909358 1.479764 -0.252600
v -0.625542 1.441512 1.316536
v 0.708347 1.474754 1.316536
v -0.826553 1.436502 1.111041
v -0.236775 3.124866 0.484562
v 0.909358 1.479764 1.111041
v -0.153405 -0.220389 0.484562
v 0.708347 1.474754 -0.458096
v 0.053852 3.132110 0.187452
v 0.888223 1.479237 -0.436489
v -0.826553 1.436502 -0.252600
v -0.236775 3.124866 0.373878
v -0.805418 1.437029 1.294929
v -0.153405 -0.220389 0.373879
v -0.054416 3.129411 0.670988
v 0.028953 -0.215844 0.670988
v 0.137222 -0.213146 0.187453
v 0.137222 -0.213146 0.670988
v 0.236210 3.136654 0.484562
v 0.319580 -0.208601 0.484562
v -0.625542 1.441511 -0.458096
v 0.028953 -0.215844 0.187453
v -0.090235 -0.380971 0.610537
v -0.181682 3.288396 0.610537
v -0.090235 -0.380971 0.247904
v 0.319580 -0.208601 0.373879
v -0.805418 1.437029 -0.436489
v 0.236210 3.136654 0.373878
v -0.181682 3.288396 0.247903
v 0.264487 -0.372130 0.247904
v 0.264487 -0.372130 0.610537
v 0.888223 1.479237 1.294929
v 0.173040 3.297236 0.610537
v 0.173040 3.297236 0.247903
vn -0.0090 0.3599 0.9330
vn -0.0090 0.3594 0.9331
vn -0.9441 0.3298 -0.0000
vn -0.9442 0.3294 -0.0000
vn 0.9265 0.3764 -0.0000
vn 0.9266 0.3760 -0.0000
vn -0.0090 0.3599 -0.9330
vn -0.0090 0.3594 -0.9331
vn 0.0090 -0.3594 -0.9331
vn 0.0090 -0.3599 -0.9330
vn 0.9442 -0.3294 -0.0000
vn 0.9441 -0.3298 -0.0000
vn -0.9266 -0.3760 -0.0000
vn -0.9265 -0.3764 -0.0000
vn 0.0090 -0.3594 0.9331
vn 0.0090 -0.3599 0.9330
vn -0.0619 0.3693 0.9272
vn 0.0619 -0.3693 0.9272
vn -0.0087 0.3493 0.9370
vn -0.0435 -0.3720 0.9272
vn 0.0435 0.3720 0.9272
vn 0.9388 -0.3406 -0.0506
vn 0.9388 -0.3406 0.0506
vn 0.9207 0.3870 -0.0506
vn 0.9207 0.3870 0.0506
vn 0.0619 -0.3693 -0.9272
vn -0.0087 0.3493 -0.9370
vn 0.0435 0.3720 -0.9272
vn -0.0619 0.3693 -0.9272
vn -0.9306 -0.3661 -0.0000
vn -0.9388 0.3406 0.0506
vn -0.9207 -0.3870 -0.0506
vn -0.9477 0.3193 -0.0000
vn -0.9207 -0.3870 0.0506
vn -0.9388 0.3406 -0.0506
vn -0.0249 0.9997 -0.0000
vn 0.0249 -0.9997 -0.0000
vn 0.0087 -0.3493 0.9370
vn 0.0087 -0.3493 -0.9370
vn -0.0435 -0.3720 -0.9272
vn 0.9477 -0.3193 -0.0000
vn 0.9306 0.3661 -0.0000
vt 0.030346 0.783915
vt 0.015698 0.892881
vt 0.028530 0.976951
vt 0.025949 0.985096
vt 0.011932 0.892881
vt 0.043628 0.892881
vt 0.030797 0.808811
vt 0.033377 0.800666
vt 0.047394 0.892881
vt 0.030797 0.976951
vt 0.033377 0.985096
vt 0.028530 0.808811
vt 0.025949 0.800666
vt 0.047837 0.892881
vt 0.034615 0.808811
vt 0.034615 0.976951
vt 0.024711 0.808811
vt 0.024711 0.976951
vt 0.011490 0.892881
s 1
usemtl Material.001
f 5/1/1 1/1/2 17/1/2 4/1/1
f 6/1/3 7/1/4 14/1/4 13/1/3
f 3/1/5 30/1/6 21/1/6 8/1/5
f 23/1/7 2/1/8 11/1/8 10/1/7
f 24/1/9 23/1/10 10/1/10 19/1/9
f 28/1/11 3/1/12 8/1/12 22/1/11
f 9/1/13 6/1/14 13/1/14 16/1/13
f 20/1/15 5/1/16 4/1/16 18/1/15
f 4/2/17 17/3/17 26/4/17 15/5/17
f 5/6/18 20/7/18 33/8/18 34/9/18
f 17/3/2 1/10/2 35/11/19 26/4/19
f 18/12/20 4/2/20 15/5/20 25/13/20
f 1/10/21 5/6/21 34/9/21 35/11/21
f 3/14/22 28/15/22 32/8/22 12/9/22
f 22/15/23 8/14/23 34/9/23 33/8/23
f 30/16/24 3/14/24 12/9/24 36/11/24
f 8/14/25 21/16/25 35/11/25 34/9/25
f 19/7/26 10/6/26 12/9/26 32/8/26
f 11/10/8 2/3/8 31/4/27 36/11/27
f 10/6/28 11/10/28 36/11/28 12/9/28
f 2/3/29 23/2/29 29/5/29 31/4/29
f 9/17/13 16/17/13 27/13/30 25/13/30
f 7/18/31 6/19/31 15/5/31 26/4/31
f 16/17/32 13/19/32 29/5/32 27/13/32
f 14/18/4 7/18/4 26/4/33 31/4/33
f 6/19/34 9/17/34 25/13/34 15/5/34
f 13/19/35 14/18/35 31/4/35 29/5/35
f 31/11/36 26/11/36 35/4/36 36/4/36
f 32/13/37 33/13/37 25/8/37 27/8/37
f 18/7/15 25/8/38 33/13/38 20/12/15
f 19/12/9 32/13/39 27/8/39 24/7/9
f 24/7/40 27/8/40 29/9/40 23/6/40
f 22/17/11 33/13/41 32/13/41 28/17/11
f 30/18/6 36/4/42 35/4/42 21/18/6
